<?xml version="1.0" encoding="UTF-8" standalone="no"?>
<svg
   xmlns:dc="http://purl.org/dc/elements/1.1/"
   xmlns:cc="http://creativecommons.org/ns#"
   xmlns:rdf="http://www.w3.org/1999/02/22-rdf-syntax-ns#"
   xmlns:svg="http://www.w3.org/2000/svg"
   xmlns="http://www.w3.org/2000/svg"
   xmlns:sodipodi="http://sodipodi.sourceforge.net/DTD/sodipodi-0.dtd"
   xmlns:inkscape="http://www.inkscape.org/namespaces/inkscape"
   version="1.1"
   x="0px"
   y="0px"
   viewBox="6.039 0 128 128"
   enable-background="new 6.039 0 87.922 100"
   xml:space="preserve"
   id="svg2"
   inkscape:version="0.91 r13725"
   sodipodi:docname="freehammer.svg"
   width="128"
   height="128"
   inkscape:export-filename="/home/ferox/Imagens/SVG/freehammer.png"
   inkscape:export-xdpi="90"
   inkscape:export-ydpi="90"><metadata
     id="metadata16"><rdf:RDF><cc:Work
         rdf:about=""><dc:format>image/svg+xml</dc:format><dc:type
           rdf:resource="http://purl.org/dc/dcmitype/StillImage" /><dc:title /></cc:Work></rdf:RDF></metadata><defs
     id="defs14" /><sodipodi:namedview
     pagecolor="#ffffff"
     bordercolor="#666666"
     borderopacity="1"
     objecttolerance="10"
     gridtolerance="10"
     guidetolerance="10"
     inkscape:pageopacity="0"
     inkscape:pageshadow="2"
     inkscape:window-width="1366"
     inkscape:window-height="713"
     id="namedview12"
     showgrid="false"
     inkscape:zoom="1"
     inkscape:cx="-160.72882"
     inkscape:cy="31.175559"
     inkscape:window-x="0"
     inkscape:window-y="26"
     inkscape:window-maximized="1"
     inkscape:current-layer="g4234" /><g
     transform="translate(144.0678,-103.46186)"
     id="g3351"><g
       id="g4234"><ellipse
         ry="53.74461"
         rx="48.875759"
         cy="173.41017"
         cx="-74.546494"
         id="path4224"
         style="opacity:1;fill:#ffffff;fill-opacity:1;stroke:none;stroke-width:7.2249999;stroke-miterlimit:4;stroke-dasharray:none;stroke-opacity:1" /><path
         sodipodi:nodetypes="cccccccccsssccccccsccc"
         inkscape:connector-curvature="0"
         id="path6"
         d="m -74.004975,111.08021 c -30.760875,2.7e-4 -55.697505,25.12288 -55.698075,56.1135 0.0324,27.48318 19.81761,50.89842 46.742092,55.31778 l 0,-32.47004 -19.282932,0 -8.11391,-5.54935 0,-34.67347 8.11391,-5.54617 15.404935,0 0,-2.63647 c 0,-1.3614 5.573604,-2.00211 12.4473,-2.00211 6.873687,0 12.444103,0.6423 12.444103,2.00372 l 0,2.63327 15.406529,0 8.112315,5.54935 0,34.67188 -8.112315,5.54935 -20.150565,0 0,32.66018 c 0,0.0185 -0.0071,0.036 -0.008,0.0544 27.670951,-3.6885 48.359142,-27.44173 48.3927,-55.56225 -5.64e-4,-30.99062 -24.937196,-56.11324 -55.69807,-56.11351 z"
         style="fill:#00caad;fill-opacity:1;stroke:#000000;stroke-width:7.40009546;stroke-miterlimit:4;stroke-dasharray:none;stroke-opacity:1" /></g></g></svg>