<?xml version="1.0" encoding="UTF-8" standalone="no"?>
<!-- Created with Inkscape (http://www.inkscape.org/) -->

<svg
   xmlns:dc="http://purl.org/dc/elements/1.1/"
   xmlns:cc="http://creativecommons.org/ns#"
   xmlns:rdf="http://www.w3.org/1999/02/22-rdf-syntax-ns#"
   xmlns:svg="http://www.w3.org/2000/svg"
   xmlns="http://www.w3.org/2000/svg"
   xmlns:sodipodi="http://sodipodi.sourceforge.net/DTD/sodipodi-0.dtd"
   xmlns:inkscape="http://www.inkscape.org/namespaces/inkscape"
   id="svg2"
   version="1.1"
   inkscape:version="0.91 r13725"
   xml:space="preserve"
   width="200"
   height="200"
   viewBox="0 0 200 200"
   sodipodi:docname="logo_fisl.svg"><metadata
     id="metadata8"><rdf:RDF><cc:Work
         rdf:about=""><dc:format>image/svg+xml</dc:format><dc:type
           rdf:resource="http://purl.org/dc/dcmitype/StillImage" /><dc:title></dc:title></cc:Work></rdf:RDF></metadata><defs
     id="defs6" /><sodipodi:namedview
     pagecolor="#ffffff"
     bordercolor="#666666"
     borderopacity="1"
     objecttolerance="10"
     gridtolerance="10"
     guidetolerance="10"
     inkscape:pageopacity="0"
     inkscape:pageshadow="2"
     inkscape:window-width="1920"
     inkscape:window-height="1029"
     id="namedview4"
     showgrid="false"
     inkscape:zoom="0.9820546"
     inkscape:cx="-155.06618"
     inkscape:cy="50.833965"
     inkscape:window-x="0"
     inkscape:window-y="22"
     inkscape:window-maximized="1"
     inkscape:current-layer="g12" /><g
     id="g10"
     inkscape:groupmode="layer"
     inkscape:label="ink_ext_XXXXXX"
     transform="matrix(1.25,0,0,-1.25,0,200)"><g
       id="g12"
       transform="scale(0.1,0.1)"><rect
         style="opacity:1;fill:#ffffff;fill-opacity:1"
         id="rect4648"
         width="1598.689"
         height="1600.7256"
         x="-4.2363163e-06"
         y="0.00012207031" /><path
         style="opacity:1;fill:#b2becc;fill-opacity:1;stroke:none;stroke-width:4;stroke-miterlimit:4;stroke-dasharray:none;stroke-opacity:1"
         d=""
         id="path3508"
         inkscape:connector-curvature="0" /><path
         style="opacity:1;fill:#e25f25;fill-opacity:1;stroke:none;stroke-width:4;stroke-miterlimit:4;stroke-dasharray:none;stroke-opacity:1"
         d=""
         id="path3518"
         inkscape:connector-curvature="0" /><g
         transform="matrix(2.1374616,0,0,-2.1374616,192.31133,1489.2226)"
         id="g3341"><path
           style="fill:#020202"
           inkscape:connector-curvature="0"
           id="path3"
           d="M 487.7,292.55 C 460.793,264.33 313.129,117.323 313.129,117.323 c 0,0 -24.282,-23.626 -54.471,0 L 85.399,291.237 c 0,0 -24.282,27.564 0,53.159 24.283,25.595 173.259,173.915 173.259,173.915 0,0 26.251,30.844 57.096,0 C 346.6,487.465 487.7,345.708 487.7,345.708 c 0,0 26.907,-24.938 0,-53.158 z m -24.608,49.643 c 0,0 -124.021,125.268 -151.131,152.526 -27.113,27.256 -50.183,0 -50.183,0 0,0 -130.941,-131.069 -152.286,-153.687 -21.342,-22.619 0,-46.975 0,-46.975 L 261.778,140.369 c 26.533,-20.878 47.874,0 47.874,0 0,0 129.79,129.91 153.439,154.846 23.649,24.939 10e-4,46.978 10e-4,46.978 z" /><path
           style="fill:#f6eb14"
           inkscape:connector-curvature="0"
           id="path5"
           d="m 468.774,343.563 c 0,0 -127.793,130.191 -155.723,158.517 -27.937,28.328 -51.704,0 -51.704,0 0,0 -134.915,-136.217 -156.91,-159.724 -21.988,-23.507 0,-48.82 0,-48.82 L 261.348,133.815 c 27.339,-21.701 49.326,0 49.326,0 0,0 133.733,135.01 158.101,160.928 24.361,25.918 -10e-4,48.82 -10e-4,48.82 z" /><polygon
           id="polygon7"
           points="325.991,396.424 370.618,401.235 365.367,358.359 353.596,367.586 315.146,327.732 370.18,327.732 370.18,345.67 405.184,318.983 370.18,290.981 370.183,308.482 314.616,308.482 353.993,266.916 365.367,278.729 370.183,234.541 326.43,240.229 337.889,252.698 299.825,292.293 299.739,234.541 316.367,234.541 287.832,200.852 261.675,234.979 278.301,234.979 277.864,293.167 235.862,252.478 247.773,239.79 201.613,234.541 208.175,278.729 220.112,266.042 260.363,308.044 204.797,307.605 204.797,290.981 169.086,318.983 204.797,345.67 204.797,327.732 261.237,327.732 220.548,368.421 208.299,358.359 201.572,401.235 247.673,396.424 234.986,384.608 277.864,345.67 278.303,403.314 261.675,403.422 287.832,437.987 315.49,403.86 299.85,403.86 299.632,346.19 337.804,384.611 " /></g></g></g></svg>