<?xml version="1.0" encoding="UTF-8" standalone="no"?>
<!-- Created with Inkscape (http://www.inkscape.org/) -->

<svg
   xmlns:dc="http://purl.org/dc/elements/1.1/"
   xmlns:cc="http://creativecommons.org/ns#"
   xmlns:rdf="http://www.w3.org/1999/02/22-rdf-syntax-ns#"
   xmlns:svg="http://www.w3.org/2000/svg"
   xmlns="http://www.w3.org/2000/svg"
   xmlns:sodipodi="http://sodipodi.sourceforge.net/DTD/sodipodi-0.dtd"
   xmlns:inkscape="http://www.inkscape.org/namespaces/inkscape"
   id="svg2"
   version="1.1"
   inkscape:version="0.91 r13725"
   xml:space="preserve"
   width="200"
   height="200"
   viewBox="0 0 200 200"
   sodipodi:docname="logo_sebrae.svg"><metadata
     id="metadata8"><rdf:RDF><cc:Work
         rdf:about=""><dc:format>image/svg+xml</dc:format><dc:type
           rdf:resource="http://purl.org/dc/dcmitype/StillImage" /><dc:title></dc:title></cc:Work></rdf:RDF></metadata><defs
     id="defs6" /><sodipodi:namedview
     pagecolor="#ffffff"
     bordercolor="#666666"
     borderopacity="1"
     objecttolerance="10"
     gridtolerance="10"
     guidetolerance="10"
     inkscape:pageopacity="0"
     inkscape:pageshadow="2"
     inkscape:window-width="1920"
     inkscape:window-height="1029"
     id="namedview4"
     showgrid="false"
     inkscape:zoom="0.9820546"
     inkscape:cx="-155.06618"
     inkscape:cy="50.833965"
     inkscape:window-x="0"
     inkscape:window-y="22"
     inkscape:window-maximized="1"
     inkscape:current-layer="g12" /><g
     id="g10"
     inkscape:groupmode="layer"
     inkscape:label="ink_ext_XXXXXX"
     transform="matrix(1.25,0,0,-1.25,0,200)"><g
       id="g12"
       transform="scale(0.1,0.1)"><rect
         style="opacity:1;fill:#ffffff;fill-opacity:1"
         id="rect4648"
         width="1598.689"
         height="1600.7256"
         x="-4.2363163e-06"
         y="0.00012207031" /><path
         style="opacity:1;fill:#b2becc;fill-opacity:1;stroke:none;stroke-width:4;stroke-miterlimit:4;stroke-dasharray:none;stroke-opacity:1"
         d=""
         id="path3508"
         inkscape:connector-curvature="0" /><path
         style="opacity:1;fill:#e25f25;fill-opacity:1;stroke:none;stroke-width:4;stroke-miterlimit:4;stroke-dasharray:none;stroke-opacity:1"
         d=""
         id="path3518"
         inkscape:connector-curvature="0" /><g
         transform="matrix(0.82160698,0,0,0.82160698,230.11404,445.93055)"
         id="g3352"><path
           inkscape:connector-curvature="0"
           id="path14"
           style="fill:#127bca;fill-opacity:1;fill-rule:evenodd;stroke:none"
           d="m 551.102,782.02354 434.14002,0 -14.09402,-67.57 -434.136,0 14.09,67.57" /><path
           inkscape:connector-curvature="0"
           id="path16"
           style="fill:#127bca;fill-opacity:1;fill-rule:evenodd;stroke:none"
           d="m 447.395,285.14054 434.16,0 -14.075,-67.558 -434.269,0 14.184,67.558" /><path
           inkscape:connector-curvature="0"
           id="path18"
           style="fill:#127bca;fill-opacity:1;fill-rule:evenodd;stroke:none"
           d="m 528.164,672.04354 434.141,0 -13.996,-67.356 -434.161,0 14.016,67.356" /><path
           inkscape:connector-curvature="0"
           id="path20"
           style="fill:#127bca;fill-opacity:1;fill-rule:evenodd;stroke:none"
           d="m 424.465,175.45354 434.156,0 -13.98,-67.559 -434.391,0 14.215,67.559" /><path
           inkscape:connector-curvature="0"
           id="path22"
           style="fill:#127bca;fill-opacity:1;fill-rule:evenodd;stroke:none"
           d="m 10.1563,404.43754 64.898404,0 c -0.832,-3.992 -1.3125,-8.137 -0.8047,-12.211 0.5625,-5.121 2.8398,-9.945 7.1719,-14.133 4.1094,-3.976 11.6758,-6.457 22.379096,-6.457 11.164,0 20.246,2.27 27.238,6.805 6.996,4.535 10.859,9.598 12.242,15.18 0.535,2.164 0.324,4.125 -0.086,6.281 -0.933,4.867 -3.789,9.418 -8.847,13.605 -5.059,4.188 -13.024,6.797 -22.778,8.723 -33.734096,6.668 -55.7497,15.992 -66.5309,25.649 -10.7774,9.652 -14.6719,24.605 -11.5743,44.836 3.8008,24.976 17.793,42.792 40.043004,54.781 22.0156,11.863 46.398196,17.797 73.148196,17.797 37.442,-1.164 60.789,-8.551 70.047,-22.161 9.254,-13.605 11.797,-30.41 7.621,-50.417 l -65.523,0.347 c 1.504,7.211 0.301,13.145 -3.613,17.797 -3.915,4.652 -10.872,6.981 -20.875,6.981 -8.606,0 -15.836,-2.04 -21.688,-6.11 -5.848,-4.07 -9.402,-8.547 -10.652,-13.433 -0.145,-0.704 -0.293,-1.395 -0.438,-2.094 -0.555,-4.883 1.172,-9.422 5.184,-13.606 4.011,-4.191 10.222,-6.746 18.636,-7.675 4.692,-0.934 9.614,-1.864 14.77,-2.793 5.156,-0.93 10.379,-2.094 15.672,-3.489 16.805,-4.187 31.656,-11.05 44.551,-20.59 12.902,-9.535 17.117,-25.003 12.648,-46.406 -5.73,-27.445 -19.668,-47.16 -41.828,-59.14 -22.156,-11.981 -47.07,-17.969 -74.753896,-17.969 -33.964904,0 -57.910204,6.742 -71.843804,20.238 -13.9297,13.492 -18.7617103,33.262 -14.4883,59.317 l 0.0743,0.347 z m 453.4257,156.317 -9.906,-47.454 -110.606,0 -9.543,-45.71 102.934,0 -9.902,-47.45 -102.934,0 -9.465,-45.363 110.61,0 -9.395,-45.008 -176.207,0 48.207,230.985 176.207,0 z m 144.106,0 c 4.167,0.031 9.82,0.136 17.75,-0.657 8.46,-0.988 16.152,-2.394 24.699,-4.925 10.293,-3.051 18.824,-7.821 27.281,-16.399 10.445,-10.594 10.797,-26.867 7.953,-40.476 -2.719,-13.028 -9.57,-24.133 -20.562,-33.321 -10.989,-9.187 -24.258,-14.25 -39.801,-15.179 12.945,-3.723 24.289,-9.829 34.031,-18.321 9.746,-8.488 12.746,-21.691 9.008,-39.601 -4.707,-22.563 -16.082,-38.614 -34.121,-48.149 -18.043,-9.539 -42.883,-14.308 -74.52,-14.308 l -102.855,0.351 48.203,230.985 102.934,0 z m -41.258,-185.977 c 9.492,-0.23 16.89,1.512 22.207,5.234 5.308,3.723 9.008,7.793 11.097,12.215 3.84,8.828 1.903,17.731 -4.64,24.598 -3.434,3.605 -8.871,5.406 -16.317,5.406 l -37.332,0 -9.906,-47.453 34.891,0 z m 17.437,95.234 c 9.957,-0.007 17.426,1.594 22.414,5.43 4.989,3.84 8.282,9.598 9.883,17.274 1.313,6.281 0.047,11.628 -3.801,16.05 -3.847,4.418 -10.187,6.629 -19.027,6.629 l -32.449,0 -9.469,-45.359 32.449,-0.024 z m 259.34,90.743 c 22.723,-0.914 41.492,-2.758 62.941,-12.735 16.75,-7.789 22.625,-23.672 17.625,-47.629 -3.98,-19.074 -12.324,-32.855 -25.027,-41.347 -12.707,-8.489 -27,-14.012 -42.887,-16.575 22.371,-0.929 34.852,-8.546 37.45,-22.855 2.597,-14.301 2.937,-29.945 1.023,-46.93 -0.824,-7.996 -1.66,-16.508 -2.094,-24.246 -0.386,-6.863 -0.14,-13.203 0.742,-19.019 l -70.41,0.351 c -0.855,3.719 -1,8.317 -0.441,13.781 0.84,8.207 2.43,16.696 3.637,24.946 1.593,12.097 1.773,23.261 0.539,33.5 -1.239,10.234 -8.02,15.351 -20.348,15.351 l -30.012,0 -18.277,-87.578 -65.598,0 48.207,230.985 102.93,0 z m -57.793,-98.047 24.774,0 c 10.316,0 18.925,0.086 28.968,5.058 7.129,3.532 11.77,9.598 13.809,19.367 1.918,9.188 0,15.875 -5.77,20.004 -5.765,4.129 -13.773,6.164 -24.007,6.164 l -27.215,0 -10.559,-50.593 z m 343.916,98.047 42.16,-230.985 -72.92,0 -6.19,42.219 -90.38,0 -24.50798,-42.219 -67.34402,0 141.022,230.985 78.16,0 z m -53.17,-47.454 -49.45,-93.16 57.57,0 -8.12,93.16 z m 348.01,47.454 -9.9,-47.454 -110.61,0 -9.54,-45.71 102.93,0 -9.91,-47.45 -102.93,0 -9.46,-45.363 110.61,0 -9.4,-45.008 -176.2,0 48.2,230.985 176.21,0" /></g></g></g></svg>